<svg width="732" height="132" xmlns="http://www.w3.org/2000/svg" xmlns:xlink="http://www.w3.org/1999/xlink" xml:space="preserve" overflow="hidden"><defs><clipPath id="clip0"><rect x="100" y="294" width="732" height="132"/></clipPath></defs><g clip-path="url(#clip0)" transform="translate(-100 -294)"><path d="M39.9969 0C52.3805 0 62.7733 1.63357 71.1794 4.90496 79.5812 8.1721 86.3111 12.6899 91.3692 18.4585 96.4231 24.227 100.09 30.8294 102.362 38.2612 104.638 45.6974 105.774 53.5802 105.774 61.9097 105.774 70.2392 104.57 78.1901 102.17 85.7538 99.7668 93.3176 95.9424 100.048 90.7013 105.944 85.4561 111.84 78.6665 116.49 70.3243 119.884 61.982 123.283 51.8743 124.981 39.9969 124.981L0 124.981 0 0 39.9969 0ZM35.8832 110.559 39.9969 110.559C49.977 110.559 58.2214 109.151 64.7344 106.331 71.2432 103.515 76.3906 99.7625 80.1852 95.083 83.9756 90.4036 86.66 85.1795 88.2425 79.411 89.8207 73.6425 90.612 67.8101 90.612 61.9139 90.612 56.0178 89.8207 50.2493 88.2425 44.6083 86.66 38.9674 83.9799 33.8753 80.1852 29.3234 76.3949 24.7758 71.2432 21.1513 64.7344 18.4585 58.2257 15.7656 49.9812 14.4213 39.9969 14.4213L35.8832 14.4213 35.8832 110.559ZM149.905 126.904C142.448 126.904 135.595 124.76 129.337 120.463 123.083 116.171 118.089 110.27 114.363 102.774 110.632 95.2745 108.773 86.7195 108.773 77.1053 108.773 67.4911 110.666 58.9063 114.46 51.3426 118.251 43.7788 123.398 37.8188 129.911 33.4626 136.42 29.1064 143.716 26.9241 151.803 26.9241 160.647 26.9241 167.377 29.2 171.993 33.7519 176.604 38.3038 179.765 44.3616 181.471 51.9211 183.177 59.4849 184.032 67.8782 184.032 77.1095 184.032 81.9805 183.525 87.2683 182.517 92.973 181.505 98.6778 179.769 104.127 177.306 109.317 174.843 114.507 171.397 118.74 166.977 122.007 162.553 125.274 156.865 126.912 149.918 126.912ZM153.696 112.291C160.141 112.291 165.475 110.691 169.712 107.484 173.945 104.28 177.072 100.018 179.097 94.6959 181.118 89.3783 182.13 83.5119 182.13 77.101 182.13 70.052 181.088 63.8666 179.003 58.5447 176.919 53.2271 173.758 49.0624 169.525 46.0462 165.288 43.0343 160.013 41.5284 153.696 41.5284 144.218 41.5284 136.888 44.8934 131.706 51.6233 126.521 58.3533 123.934 66.8444 123.934 77.101 123.934 83.8948 125.227 89.9526 127.818 95.2702 130.405 100.592 133.948 104.757 138.432 107.769 142.916 110.781 148.004 112.287 153.692 112.287ZM182.126 28.8427 210.041 28.8427 210.041 124.981 181.951 124.981C181.394 120.365 182.126 28.8427 182.126 28.8427ZM215.295 16.3059 290.941 16.3059 290.941 30.7273 215.295 30.7273 215.295 16.3059ZM235.574 3.84569 262.851 3.84569 262.851 124.981 235.574 124.981 235.574 3.84569ZM345.878 132.004C334.89 132.004 325.123 129.877 316.576 125.632 308.03 121.382 301.291 115.222 296.357 107.139 291.422 99.0606 288.954 89.3103 288.954 77.8838 288.954 66.4573 291.422 55.8731 296.357 47.7946 301.291 39.7161 308.03 33.6583 316.576 29.6127 325.123 25.5756 334.89 23.5549 345.878 23.5549 358.088 23.5549 368.642 25.8223 377.546 30.3486 386.445 34.875 393.316 41.2136 398.148 49.3644 402.981 57.5152 405.397 67.0231 405.397 77.888 405.397 85.9708 404.023 93.3176 401.275 99.9327 398.527 106.552 394.562 112.261 389.372 117.068 384.182 121.875 377.929 125.568 370.603 128.142 363.278 130.72 355.037 132.008 345.883 132.008ZM356.284 100.243C364.014 100.243 371.109 99.5839 377.571 98.2566 384.029 96.9336 389.219 94.6704 393.137 91.4628 397.051 88.2595 399.012 83.7332 399.012 77.8795 399.012 72.0259 397.051 67.2954 393.137 64.0878 389.219 60.8845 384.033 58.6553 377.571 57.4004 371.109 56.1454 364.014 55.5201 356.284 55.5201 345.908 55.5201 337.868 57.3663 332.172 61.0589 326.475 64.7514 323.625 70.3583 323.625 77.8795 323.625 82.759 324.897 86.8642 327.441 90.2079 329.985 93.5516 333.699 96.0572 338.583 97.7291 343.466 99.4009 349.367 100.235 356.284 100.235ZM399.012 26.6859 421.108 26.6859 421.108 129.077 400.301 129.077C399.871 122.671 399.548 116.473 399.335 110.479 399.118 104.489 399.012 97.4526 399.012 89.3741L399.012 26.6816ZM513.417 43.264 455.034 115.945 455.123 100.86 513.983 110.559 513.983 124.981 440.438 124.981 440.519 100.86 499.77 37.8784 498.949 56.4092 440.442 43.264 440.442 28.8427 513.417 28.8427 513.417 43.264ZM576.709 127.286C564.832 127.286 554.371 125.64 545.34 122.343 536.304 119.046 529.259 114.243 524.205 107.922 519.151 101.605 516.625 93.8324 516.625 84.601 516.625 75.3696 519.151 67.5421 524.205 61.1184 529.259 54.6905 536.304 49.8281 545.34 46.5354 554.375 43.2385 564.832 41.5922 576.709 41.5922 588.587 41.5922 598.984 43.2385 607.892 46.5354 616.8 49.8323 623.781 54.6948 628.839 61.1184 633.893 67.5464 636.42 75.3739 636.42 84.601 636.42 93.8281 633.888 101.605 628.839 107.922 623.781 114.239 616.804 119.046 607.892 122.343 598.984 125.64 588.587 127.286 576.709 127.286ZM576.709 108.058C583.278 108.058 589.186 107.22 594.432 105.54 599.673 103.863 603.816 101.413 606.849 98.1928 609.883 94.9724 611.397 91.0502 611.397 86.426 611.397 81.8018 609.883 77.8327 606.849 74.5231 603.816 71.2134 599.707 68.695 594.53 66.9721 589.348 65.2492 583.409 64.3856 576.714 64.3856 570.018 64.3856 564.202 65.2492 558.897 66.9721 553.588 68.695 549.385 71.1879 546.293 74.455 543.196 77.7221 541.647 81.7125 541.647 86.426 541.647 91.1395 543.162 94.9767 546.195 98.1928 549.228 101.413 553.397 103.863 558.706 105.54 564.015 107.22 570.013 108.058 576.714 108.058ZM540.758 26.5072 588.268 4.33066 611.312 14.2342 565.245 35.8917 540.758 26.5115ZM643.205 28.8384 668.619 28.8384 668.619 124.977 643.205 124.977 643.205 28.8427ZM695.466 26.9156C700.52 26.9156 705.068 27.6856 709.113 29.2213 713.155 30.7613 716.567 33.0032 719.349 35.9513 722.127 38.8994 724.279 42.46 725.794 46.6205 727.308 50.7895 728.07 55.4988 728.07 60.7526L728.07 124.972 712.904 124.972 712.904 64.5983C712.904 57.1664 711.198 51.5893 707.786 47.8712 704.374 44.1531 699.257 42.2941 692.433 42.2941 687.247 42.2941 682.449 43.6384 678.029 46.3312 673.605 49.0241 669.972 52.7081 667.13 57.3876 664.284 62.0671 662.548 67.4826 661.919 73.6339L661.727 62.484C662.357 57.0983 663.654 52.2317 665.615 47.8712 667.572 43.515 670.035 39.7672 673.009 36.6234 675.974 33.4839 679.386 31.0803 683.244 29.4127 687.099 27.7494 691.174 26.9113 695.471 26.9113Z" fill="#F3F3F3" transform="matrix(1.00473 0 0 1 100.242 294)"/></g></svg>