
<svg id="Capa_1" data-name="Capa 1" xmlns="http://www.w3.org/2000/svg" xmlns:xlink="http://www.w3.org/1999/xlink" viewBox="0 0 1080 1080">
  <defs>
    <style>
      .cls-1 {
        fill: url(#linear-gradient);
      }

      .cls-1, .cls-2, .cls-3, .cls-4 {
        stroke-width: 0px;
      }

      .cls-2 {
        fill: #fcc803;
      }

      .cls-3 {
        fill: #838484;
      }

      .cls-4 {
        fill: url(#linear-gradient-2);
      }
    </style>
    <linearGradient id="linear-gradient" x1="146.63" y1="553.9" x2="146.63" y2="516.54" gradientUnits="userSpaceOnUse">
      <stop offset="0" stop-color="#fcc803"/>
      <stop offset="1" stop-color="#fcea1e"/>
    </linearGradient>
    <linearGradient id="linear-gradient-2" x1="184.97" y1="660.01" x2="184.97" y2="440.03" xlink:href="#linear-gradient"/>
  </defs>
  <g>
    <path class="cls-2" d="m335.91,571.43v-31.42c0-1.72,1.4-3.12,3.12-3.12h8.56c.32,0,3.17.06,6.13,1.51,4.2,2.1,6.51,5.97,6.51,11.03,0,.32-.05,3.23-1.51,6.13-2.1,4.14-6.08,6.46-11.14,6.46h-5.38v9.41c0,1.72-1.4,3.12-3.18,3.12s-3.12-1.4-3.12-3.12Zm6.29-15.71h5.38c2.69,0,4.41-.91,5.43-2.85.86-1.61.92-3.33.92-3.44,0-2.69-.97-4.41-3.01-5.43-1.61-.81-3.33-.81-3.33-.81h-5.38v12.54Z"/>
    <path class="cls-2" d="m362.21,571.43v-31.42c0-1.72,1.4-3.12,3.12-3.12s3.12,1.4,3.12,3.12v31.42c0,1.72-1.4,3.12-3.12,3.12s-3.12-1.4-3.12-3.12Z"/>
    <path class="cls-3" d="m385.46,574.55c-.57,0-1.08-.21-1.51-.64-.43-.43-.65-.93-.65-1.51v-33.36c0-.57.22-1.08.65-1.51.43-.43.93-.64,1.51-.64h9.68s.46.03,1.26.08c.81.05,1.8.25,2.99.59,1.18.34,2.46.89,3.82,1.64,1.36.76,2.62,1.83,3.77,3.23,1.15,1.4,2.11,3.17,2.88,5.33.77,2.15,1.16,4.81,1.16,7.96s-.39,5.81-1.16,7.96c-.77,2.15-1.73,3.93-2.88,5.33-1.15,1.4-2.4,2.47-3.77,3.23-1.36.75-2.64,1.3-3.82,1.64-1.18.34-2.18.54-2.99.59-.81.05-1.23.08-1.26.08h-9.68Zm2.31-4.41h7.37c.07,0,.29-.02.65-.05.36-.04.81-.12,1.34-.24.54-.13,1.15-.32,1.83-.59.68-.27,1.38-.62,2.1-1.05,1.76-1.18,3.12-2.83,4.09-4.95.97-2.12,1.45-4.63,1.45-7.53s-.5-5.58-1.51-7.69c-1-2.12-2.44-3.77-4.3-4.95-.65-.43-1.31-.76-1.99-.99-.68-.23-1.29-.4-1.83-.51-.54-.11-1.15-.2-1.83-.27h-7.37v28.83Z"/>
    <path class="cls-3" d="m441.03,571.54c.07.29.11.57.11.86,0,.54-.19,1.03-.57,1.48-.38.45-.91.67-1.59.67-.4,0-.8-.15-1.21-.46-.41-.3-.71-.65-.89-1.05v.05l-2.74-6.83h-17c-.4,1.04-.84,2.18-1.35,3.42-.5,1.24-.97,2.37-1.4,3.42-.18.36-.48.69-.89.99-.41.31-.8.46-1.16.46-.65,0-1.17-.23-1.56-.7-.4-.47-.59-.95-.59-1.45,0-.29.04-.57.11-.86l10.49-26.36,2.8-6.83v.05c.18-.39.46-.74.83-1.05.38-.3.8-.46,1.26-.46.39,0,.79.15,1.18.46.39.3.68.66.86,1.05v-.05l13.29,33.19Zm-8.71-9.68l-6.62-16.89-6.73,16.89h13.34Z"/>
    <path class="cls-3" d="m458.41,536.89c.64,0,1.19.21,1.64.64.45.43.67.93.67,1.51,0,.65-.22,1.18-.67,1.61-.45.43-.99.65-1.64.65h-7.75v31.1c0,.57-.22,1.08-.65,1.51-.43.43-.95.64-1.56.64s-1.12-.21-1.53-.64c-.41-.43-.62-.93-.62-1.51v-31.1h-7.8c-.61,0-1.13-.22-1.56-.65-.43-.43-.64-.97-.64-1.61,0-.57.21-1.08.64-1.51.43-.43.95-.64,1.56-.64h19.91Z"/>
    <path class="cls-3" d="m486.98,571.54c.07.29.11.57.11.86,0,.54-.19,1.03-.57,1.48-.38.45-.91.67-1.59.67-.4,0-.8-.15-1.21-.46-.41-.3-.71-.65-.89-1.05v.05l-2.74-6.83h-17c-.4,1.04-.84,2.18-1.35,3.42-.5,1.24-.97,2.37-1.4,3.42-.18.36-.48.69-.89.99-.41.31-.8.46-1.16.46-.65,0-1.17-.23-1.56-.7-.4-.47-.59-.95-.59-1.45,0-.29.03-.57.11-.86l10.49-26.36,2.8-6.83v.05c.18-.39.46-.74.83-1.05.38-.3.8-.46,1.26-.46.39,0,.79.15,1.18.46.39.3.68.66.86,1.05v-.05l13.29,33.19Zm-8.71-9.68l-6.62-16.89-6.73,16.89h13.34Z"/>
    <path class="cls-3" d="m513.28,551.95c.25.07.68.23,1.29.48.61.25,1.31.58,2.1.99.79.41,1.61.91,2.48,1.51.86.59,1.67,1.26,2.42,2.02.75.75,1.4,1.59,1.94,2.5.54.91.88,1.91,1.02,2.98v.54c0,1.47-.29,2.9-.86,4.28-.57,1.38-1.38,2.59-2.42,3.63-1.15,1.15-2.49,2.02-4.03,2.63-1.54.61-3.18.91-4.9.91h-.43c-2.19-.07-4.18-.69-5.97-1.86-1.79-1.16-3.14-2.73-4.03-4.71-.11-.21-.16-.52-.16-.91s.13-.79.38-1.18c.25-.39.63-.7,1.13-.91.07-.07.29-.11.65-.11.43,0,.83.11,1.21.33.38.21.65.52.83.91.57,1.25,1.41,2.23,2.5,2.93,1.09.7,2.32,1.07,3.68,1.1h.27c2.37,0,4.25-.74,5.65-2.21,1.43-1.36,2.15-2.98,2.15-4.84v-.22c-.07-.82-.42-1.6-1.05-2.34-.63-.74-1.36-1.4-2.2-1.99-.84-.59-1.72-1.1-2.61-1.53-.9-.43-1.65-.74-2.26-.91l.05.05c-.29-.11-.48-.16-.59-.16-5.13-1.86-7.69-5.13-7.69-9.79v-.43c.07-1.29.4-2.49.97-3.6.57-1.11,1.4-2.08,2.47-2.91.93-.75,2.01-1.33,3.23-1.72,1.22-.4,2.51-.59,3.87-.59h.54c1.04.03,2.09.25,3.15.64,1.06.4,2.03.91,2.93,1.56.18.25.39.55.62.89.23.34.35.64.35.89,0,.54-.18.99-.54,1.34-.47.57-1.06.86-1.78.86-.18,0-.4-.03-.65-.08-.25-.05-.47-.17-.64-.35-.5-.36-1.09-.66-1.75-.91-.66-.25-1.3-.4-1.91-.43h-.43c-1.72,0-3.16.43-4.3,1.29-1.15.86-1.74,1.97-1.77,3.33v.22c0,.9.14,1.65.43,2.26.29.61.67,1.13,1.16,1.56.48.43,1.02.8,1.61,1.1.59.31,1.21.59,1.85.83l.05.11Z"/>
    <path class="cls-3" d="m546.75,536.89c.64,0,1.19.21,1.64.64.45.43.67.93.67,1.51,0,.65-.22,1.18-.67,1.61-.45.43-.99.65-1.64.65h-7.75v31.1c0,.57-.22,1.08-.65,1.51-.43.43-.95.64-1.56.64s-1.12-.21-1.53-.64c-.41-.43-.62-.93-.62-1.51v-31.1h-7.8c-.61,0-1.13-.22-1.56-.65-.43-.43-.64-.97-.64-1.61,0-.57.21-1.08.64-1.51.43-.43.95-.64,1.56-.64h19.91Z"/>
    <path class="cls-3" d="m574.99,571.16l-.05-.05c.07.21.14.43.21.64.07.22.11.43.11.65,0,.32-.1.66-.3,1.02-.2.36-.46.65-.78.86-.29.18-.64.27-1.08.27-.9,0-1.54-.34-1.94-1.02l-7.69-12.27h-7.32v11.14c0,.57-.21,1.08-.65,1.51-.43.43-.95.64-1.56.64s-1.12-.21-1.53-.64c-.41-.43-.62-.93-.62-1.51v-33.36c0-.57.21-1.08.62-1.51.41-.43.92-.64,1.53-.64h9.09c.18,0,.86.08,2.04.24,1.18.16,2.51.58,3.98,1.26h-.05c1.94,1.04,3.46,2.48,4.57,4.33,1.11,1.85,1.67,3.95,1.67,6.32,0,.11-.01.34-.03.7-.02.36-.08.82-.19,1.37-.1.56-.26,1.18-.46,1.88-.2.7-.48,1.41-.83,2.13-.5,1.04-1.23,1.99-2.18,2.85-.95.86-2.07,1.65-3.36,2.37l6.78,10.81Zm-18.83-14.31h6.89c1.61,0,2.97-.3,4.09-.92,1.11-.61,1.99-1.49,2.64-2.63.25-.47.45-.94.59-1.43.14-.48.25-.93.32-1.34.07-.41.12-.75.13-1.02.02-.27.03-.42.03-.46,0-3.19-1.28-5.45-3.82-6.78-.5-.25-.99-.44-1.45-.56-.47-.13-.9-.22-1.29-.3-.43-.07-.84-.11-1.24-.11h-6.89v15.55Z"/>
    <path class="cls-3" d="m608.83,571.54c.07.29.11.57.11.86,0,.54-.19,1.03-.56,1.48-.38.45-.91.67-1.59.67-.39,0-.8-.15-1.21-.46-.41-.3-.71-.65-.89-1.05v.05l-2.75-6.83h-17c-.39,1.04-.84,2.18-1.34,3.42-.5,1.24-.97,2.37-1.4,3.42-.18.36-.48.69-.89.99-.41.31-.8.46-1.16.46-.65,0-1.17-.23-1.56-.7-.4-.47-.59-.95-.59-1.45,0-.29.04-.57.11-.86l10.49-26.36,2.8-6.83v.05c.18-.39.46-.74.83-1.05.37-.3.8-.46,1.26-.46.4,0,.79.15,1.18.46.4.3.68.66.86,1.05v-.05l13.29,33.19Zm-8.71-9.68l-6.62-16.89-6.72,16.89h13.34Z"/>
    <path class="cls-3" d="m626.21,536.89c.64,0,1.19.21,1.64.64.45.43.67.93.67,1.51,0,.65-.22,1.18-.67,1.61-.45.43-.99.65-1.64.65h-7.75v31.1c0,.57-.22,1.08-.64,1.51-.43.43-.95.64-1.56.64s-1.12-.21-1.53-.64c-.41-.43-.62-.93-.62-1.51v-31.1h-7.8c-.61,0-1.13-.22-1.56-.65-.43-.43-.64-.97-.64-1.61,0-.57.21-1.08.64-1.51.43-.43.95-.64,1.56-.64h19.91Z"/>
    <path class="cls-3" d="m653.33,570.78c.43.43.64.97.64,1.61,0,.57-.22,1.08-.64,1.51-.43.43-.95.64-1.56.64h-18.29c-.61,0-1.13-.21-1.56-.64-.43-.43-.64-.93-.64-1.51v-33.36c0-.57.21-1.08.64-1.51.43-.43.95-.64,1.56-.64h18.29c.61,0,1.13.21,1.56.64.43.43.64.93.64,1.51,0,.65-.22,1.18-.64,1.61-.43.43-.95.65-1.56.65h-16.09v12.27h12.75c.61,0,1.12.21,1.53.62.41.41.62.92.62,1.53s-.21,1.12-.62,1.53c-.41.41-.93.62-1.53.62h-12.75v12.27h16.09c.61,0,1.13.22,1.56.65Z"/>
    <path class="cls-3" d="m672.75,574.55c-2.44,0-4.81-.46-7.13-1.37-2.32-.91-4.38-2.28-6.21-4.12-1.76-1.79-3.11-3.83-4.06-6.11-.95-2.28-1.43-4.69-1.43-7.24s.48-4.9,1.43-7.18c.95-2.28,2.3-4.31,4.06-6.11,1.83-1.83,3.89-3.21,6.19-4.14,2.29-.93,4.68-1.4,7.15-1.4s4.91.47,7.21,1.4c2.3.94,4.36,2.32,6.19,4.14.4.36.59.86.59,1.51s-.22,1.18-.64,1.61c-.43.4-.95.59-1.56.59-.64,0-1.17-.2-1.56-.59-1.36-1.36-2.91-2.41-4.65-3.15-1.74-.73-3.59-1.1-5.57-1.1s-3.81.37-5.51,1.1c-1.7.74-3.26,1.79-4.65,3.15-1.36,1.36-2.41,2.91-3.15,4.65-.74,1.74-1.1,3.58-1.1,5.51s.36,3.78,1.1,5.51c.74,1.74,1.79,3.29,3.15,4.66,1.43,1.44,3.04,2.51,4.82,3.23,1.78.72,3.56,1.07,5.35,1.07,3.48,0,6.69-1.2,9.63-3.6v-8.72h-9.47c-.61,0-1.14-.2-1.59-.62-.45-.41-.67-.92-.67-1.53s.22-1.12.67-1.53c.45-.41.98-.62,1.59-.62h11.62c.61,0,1.13.21,1.56.62.43.41.64.92.64,1.53v11.73c0,.29-.06.58-.16.89-.11.31-.27.55-.48.72-1.83,1.83-3.89,3.2-6.19,4.12-2.29.91-4.68,1.37-7.16,1.37Z"/>
    <path class="cls-3" d="m715.73,537.27c.68.47,1.02,1.06,1.02,1.77,0,.57-.13,1.01-.37,1.29l-11.25,16.03v16.03c0,.57-.22,1.08-.67,1.51-.45.43-.99.64-1.64.64-.57,0-1.08-.21-1.51-.64-.43-.43-.64-.93-.64-1.51v-16.03l-11.24-16.03c-.25-.29-.38-.64-.38-1.08,0-.57.2-1.11.59-1.61.4-.5.91-.75,1.56-.75.4,0,.76.1,1.08.29.32.2.59.44.81.73l9.74,13.93c1.54-2.15,3.19-4.47,4.95-6.94,1.76-2.48,3.41-4.81,4.95-6.99.22-.29.48-.53.78-.73.31-.2.66-.29,1.05-.29.5,0,.9.13,1.18.38Z"/>
    <path class="cls-3" d="m759.42,571c.32.32.48.77.48,1.34,0,.29-.08.59-.24.91-.16.33-.33.59-.51.81-.18.14-.41.26-.7.35-.29.09-.54.13-.75.13-.32,0-.64-.06-.95-.19-.3-.13-.55-.33-.72-.62l-3.66-4.52-2.32,2.69c-1.11.9-2.28,1.56-3.52,1.99-1.24.43-2.48.64-3.74.64-1.58,0-3.06-.3-4.44-.91-1.38-.61-2.58-1.44-3.61-2.5-1.02-1.06-1.84-2.29-2.44-3.69-.61-1.4-.92-2.9-.92-4.52,0-1.11.18-2.21.54-3.28.36-1.08.85-2.08,1.48-3.01.63-.93,1.38-1.78,2.26-2.55.88-.77,1.84-1.45,2.88-2.02-1.22-2.12-1.83-4.03-1.83-5.76,0-1.29.24-2.51.72-3.66.48-1.15,1.16-2.15,2.02-3.02.86-.86,1.86-1.53,2.99-2.02,1.13-.48,2.34-.73,3.63-.73s2.51.24,3.66.73c1.15.49,2.15,1.16,3.01,2.02.86.86,1.53,1.87,2.02,3.02.48,1.15.73,2.36.73,3.66v.7c-.18.86-.52,1.74-1.02,2.63-.5.9-1.11,1.74-1.83,2.53-.72.79-1.54,1.49-2.48,2.1-.94.61-1.92,1.08-2.96,1.4l5.38,6.83,4.09-4.57c.57-.5,1.11-.75,1.61-.75.57,0,1.06.2,1.45.59.25.21.43.47.54.75.11.29.16.57.16.86,0,.57-.14,1.06-.43,1.45l-4.57,5.11,3.98,5.06Zm-9.79-5.27l-8.13-10.06c-1.69.5-3.06,1.41-4.12,2.71-1.06,1.31-1.59,2.83-1.59,4.55,0,1.01.18,1.95.54,2.83.36.88.85,1.64,1.48,2.28.63.65,1.37,1.16,2.23,1.53.86.38,1.77.56,2.74.56,1.65,0,2.97-.43,3.98-1.29l2.85-3.12Zm-3.55-24.42c-.68,0-1.33.13-1.94.37-.61.25-1.15.61-1.61,1.08-.47.47-.83,1.01-1.1,1.61-.27.61-.4,1.26-.4,1.94,0,1.22.38,2.29,1.13,3.23l1.61,1.77h2.26c.68,0,1.33-.13,1.94-.4.61-.27,1.15-.63,1.61-1.1.47-.47.83-1,1.08-1.61.25-.61.37-1.24.37-1.88v-.59c-.18-1.25-.74-2.3-1.67-3.15-.93-.84-2.02-1.26-3.28-1.26Z"/>
    <path class="cls-3" d="m800.74,568.42c.43-.18.79-.27,1.08-.27.4,0,.77.1,1.13.3.36.2.63.49.81.89.28.5.33,1.06.13,1.67-.2.61-.53,1.06-.99,1.34l.05-.05c-1.36.68-2.83,1.23-4.38,1.64-1.56.41-3.11.62-4.66.62-2.58,0-5.02-.49-7.31-1.48-2.3-.99-4.3-2.33-6-4.03-1.71-1.71-3.05-3.71-4.03-6-.99-2.29-1.48-4.74-1.48-7.32s.49-5.01,1.48-7.29c.98-2.28,2.33-4.28,4.03-6,1.7-1.72,3.7-3.08,6-4.06,2.29-.98,4.73-1.48,7.31-1.48,1.54,0,3.1.22,4.66.67,1.56.45,3.02.98,4.38,1.59l-.05-.05c.5.32.85.78,1.05,1.37.2.59.14,1.16-.19,1.69-.4.75-1.04,1.13-1.94,1.13-.36,0-.71-.09-1.08-.27h.05c-.97-.54-2.05-.96-3.25-1.26-1.2-.3-2.41-.46-3.63-.46-1.97,0-3.83.37-5.57,1.13-1.74.75-3.26,1.78-4.57,3.07-1.31,1.29-2.35,2.82-3.12,4.57-.77,1.76-1.16,3.64-1.16,5.65s.39,3.89,1.16,5.65c.77,1.76,1.81,3.28,3.12,4.57,1.31,1.29,2.83,2.31,4.57,3.07,1.74.75,3.6,1.13,5.57,1.13,1.26,0,2.47-.13,3.63-.4,1.17-.27,2.25-.71,3.25-1.32h-.05Z"/>
    <path class="cls-3" d="m821.77,574.55c-2.48,0-4.81-.49-6.99-1.48-2.19-.99-4.1-2.33-5.73-4.03-1.63-1.71-2.92-3.71-3.87-6-.95-2.29-1.43-4.74-1.43-7.32s.48-5.01,1.43-7.29c.95-2.28,2.24-4.28,3.87-6,1.63-1.72,3.54-3.08,5.73-4.06,2.19-.98,4.52-1.48,6.99-1.48s4.81.49,6.99,1.48c2.19.99,4.09,2.34,5.7,4.06,1.61,1.72,2.89,3.72,3.85,6,.95,2.28,1.43,4.71,1.43,7.29s-.48,5.02-1.43,7.32c-.95,2.29-2.23,4.29-3.85,6-1.61,1.7-3.52,3.05-5.7,4.03-2.19.98-4.52,1.48-6.99,1.48Zm0-33.25c-1.9,0-3.68.37-5.33,1.13-1.65.75-3.08,1.78-4.3,3.07-1.22,1.29-2.19,2.82-2.91,4.57-.72,1.76-1.08,3.64-1.08,5.65s.36,3.89,1.08,5.65c.71,1.76,1.68,3.28,2.91,4.57,1.22,1.29,2.65,2.31,4.3,3.07,1.65.75,3.43,1.13,5.33,1.13s3.62-.37,5.27-1.13c1.65-.75,3.1-1.78,4.33-3.07,1.24-1.29,2.21-2.81,2.91-4.57.7-1.76,1.05-3.64,1.05-5.65s-.35-3.89-1.05-5.65c-.7-1.75-1.67-3.28-2.91-4.57-1.23-1.29-2.68-2.32-4.33-3.07-1.65-.75-3.41-1.13-5.27-1.13Z"/>
    <path class="cls-3" d="m867.45,574.55c-.4,0-.75-.1-1.05-.29-.31-.2-.57-.44-.78-.73l-19.2-27.49v26.36c0,.57-.23,1.08-.67,1.51-.45.43-1,.64-1.64.64-.57,0-1.08-.21-1.51-.64-.43-.43-.65-.93-.65-1.51v-33.36c0-.54.22-1.03.65-1.48.43-.45.95-.67,1.56-.67.4,0,.74.1,1.05.29.3.2.56.44.78.73l19.26,27.49v-26.36c0-.57.21-1.08.64-1.51.43-.43.95-.64,1.56-.64s1.13.21,1.56.64c.43.43.65.93.65,1.51v33.36c0,.57-.21,1.08-.65,1.51-.43.43-.95.64-1.56.64Z"/>
    <path class="cls-3" d="m883.86,551.95c.25.07.68.23,1.29.48.61.25,1.31.58,2.1.99.79.41,1.61.91,2.47,1.51.86.59,1.67,1.26,2.42,2.02.75.75,1.4,1.59,1.93,2.5.54.91.88,1.91,1.02,2.98v.54c0,1.47-.29,2.9-.86,4.28-.57,1.38-1.38,2.59-2.42,3.63-1.15,1.15-2.49,2.02-4.03,2.63-1.54.61-3.18.91-4.9.91h-.43c-2.19-.07-4.18-.69-5.97-1.86-1.79-1.16-3.14-2.73-4.03-4.71-.11-.21-.16-.52-.16-.91s.13-.79.37-1.18c.25-.39.63-.7,1.13-.91.07-.07.29-.11.64-.11.43,0,.83.11,1.21.33.37.21.65.52.83.91.57,1.25,1.41,2.23,2.5,2.93,1.09.7,2.32,1.07,3.68,1.1h.27c2.37,0,4.25-.74,5.65-2.21,1.43-1.36,2.15-2.98,2.15-4.84v-.22c-.07-.82-.42-1.6-1.05-2.34-.62-.74-1.36-1.4-2.2-1.99-.84-.59-1.71-1.1-2.61-1.53-.9-.43-1.65-.74-2.26-.91l.05.05c-.29-.11-.48-.16-.59-.16-5.13-1.86-7.7-5.13-7.7-9.79v-.43c.07-1.29.4-2.49.97-3.6.57-1.11,1.4-2.08,2.48-2.91.93-.75,2.01-1.33,3.23-1.72,1.22-.4,2.51-.59,3.87-.59h.54c1.04.03,2.09.25,3.15.64,1.06.4,2.03.91,2.93,1.56.18.25.39.55.62.89.23.34.35.64.35.89,0,.54-.18.99-.54,1.34-.47.57-1.06.86-1.78.86-.18,0-.39-.03-.64-.08-.25-.05-.47-.17-.64-.35-.5-.36-1.09-.66-1.75-.91-.66-.25-1.3-.4-1.91-.43h-.43c-1.72,0-3.15.43-4.3,1.29-1.15.86-1.74,1.97-1.78,3.33v.22c0,.9.14,1.65.43,2.26.29.61.67,1.13,1.16,1.56.48.43,1.02.8,1.61,1.1.59.31,1.21.59,1.85.83l.06.11Z"/>
    <path class="cls-3" d="m910.86,574.55c-2.62,0-4.91-.6-6.89-1.8-1.97-1.2-3.5-2.97-4.57-5.3-.4-.79-.69-1.57-.89-2.34-.2-.77-.35-1.47-.46-2.1-.11-.63-.17-1.14-.19-1.53-.02-.4-.02-.65-.02-.76v-21.68c0-.57.22-1.08.67-1.51.45-.43.97-.64,1.58-.64.57,0,1.08.21,1.51.64.43.43.65.93.65,1.51v21.68c0,.15.02.48.08,1,.06.52.19,1.13.4,1.83.21.7.51,1.44.89,2.21.38.77.88,1.48,1.51,2.12.63.65,1.42,1.18,2.37,1.61.95.43,2.07.64,3.36.64,1.87,0,3.37-.42,4.52-1.26,1.15-.84,2.02-1.81,2.61-2.91.59-1.09.99-2.15,1.18-3.17.2-1.02.29-1.71.29-2.07v-21.68c0-.57.22-1.08.64-1.51.43-.43.95-.64,1.56-.64s1.12.21,1.53.64c.41.43.62.93.62,1.51v21.68c0,.11,0,.36-.03.76-.01.39-.07.9-.16,1.53-.09.63-.24,1.33-.46,2.1-.22.77-.5,1.55-.86,2.34-1.08,2.33-2.59,4.1-4.55,5.3-1.95,1.2-4.26,1.8-6.91,1.8Z"/>
    <path class="cls-3" d="m928.83,574.55c-.61,0-1.14-.21-1.59-.64-.45-.43-.67-.93-.67-1.51v-33.36c0-.57.22-1.08.67-1.51.45-.43.97-.64,1.59-.64s1.13.21,1.56.64c.43.43.64.93.64,1.51v31.1h12.7c.64,0,1.19.22,1.64.65.45.43.67.97.67,1.61,0,.57-.22,1.08-.67,1.51-.45.43-.99.64-1.64.64h-14.9Z"/>
    <path class="cls-3" d="m963.75,536.89c.64,0,1.19.21,1.64.64.45.43.67.93.67,1.51,0,.65-.22,1.18-.67,1.61-.45.43-.99.65-1.64.65h-7.75v31.1c0,.57-.22,1.08-.65,1.51-.43.43-.95.64-1.56.64s-1.12-.21-1.53-.64c-.41-.43-.62-.93-.62-1.51v-31.1h-7.8c-.61,0-1.13-.22-1.56-.65-.43-.43-.64-.97-.64-1.61,0-.57.22-1.08.64-1.51.43-.43.95-.64,1.56-.64h19.91Z"/>
    <path class="cls-3" d="m971.17,574.55c-.57,0-1.08-.21-1.51-.64-.43-.43-.65-.93-.65-1.51v-33.36c0-.57.22-1.08.65-1.51.43-.43.93-.64,1.51-.64.61,0,1.14.21,1.59.64.45.43.67.93.67,1.51v33.36c0,.57-.22,1.08-.67,1.51-.45.43-.98.64-1.59.64Z"/>
    <path class="cls-3" d="m1002.43,574.55c-.4,0-.75-.1-1.05-.29-.31-.2-.57-.44-.78-.73l-19.2-27.49v26.36c0,.57-.23,1.08-.67,1.51-.45.43-1,.64-1.64.64-.57,0-1.08-.21-1.51-.64-.43-.43-.65-.93-.65-1.51v-33.36c0-.54.22-1.03.65-1.48.43-.45.95-.67,1.56-.67.4,0,.74.1,1.05.29.3.2.56.44.78.73l19.26,27.49v-26.36c0-.57.21-1.08.64-1.51.43-.43.95-.64,1.56-.64s1.13.21,1.56.64c.43.43.65.93.65,1.51v33.36c0,.57-.21,1.08-.65,1.51-.43.43-.95.64-1.56.64Z"/>
    <path class="cls-3" d="m1025.89,574.55c-2.44,0-4.81-.46-7.13-1.37-2.32-.91-4.39-2.28-6.21-4.12-1.76-1.79-3.11-3.83-4.06-6.11-.95-2.28-1.43-4.69-1.43-7.24s.48-4.9,1.43-7.18c.95-2.28,2.3-4.31,4.06-6.11,1.83-1.83,3.89-3.21,6.19-4.14,2.29-.93,4.68-1.4,7.15-1.4s4.91.47,7.21,1.4c2.3.94,4.36,2.32,6.19,4.14.4.36.59.86.59,1.51s-.22,1.18-.64,1.61c-.43.4-.95.59-1.56.59-.64,0-1.17-.2-1.56-.59-1.36-1.36-2.91-2.41-4.65-3.15-1.74-.73-3.59-1.1-5.57-1.1s-3.81.37-5.51,1.1c-1.7.74-3.26,1.79-4.66,3.15-1.36,1.36-2.41,2.91-3.15,4.65-.74,1.74-1.1,3.58-1.1,5.51s.36,3.78,1.1,5.51c.74,1.74,1.79,3.29,3.15,4.66,1.43,1.44,3.04,2.51,4.82,3.23,1.78.72,3.56,1.07,5.35,1.07,3.48,0,6.69-1.2,9.63-3.6v-8.72h-9.47c-.61,0-1.14-.2-1.59-.62-.45-.41-.67-.92-.67-1.53s.22-1.12.67-1.53c.45-.41.98-.62,1.59-.62h11.62c.61,0,1.13.21,1.56.62.43.41.64.92.64,1.53v11.73c0,.29-.06.58-.16.89-.11.31-.27.55-.48.72-1.83,1.83-3.89,3.2-6.19,4.12-2.29.91-4.68,1.37-7.16,1.37Z"/>
  </g>
  <g>
    <path class="cls-1" d="m139.74,535.22c0,8.65,5.6,16.16,13.78,18.68v-37.37c-8.18,2.53-13.78,10.04-13.78,18.68Z"/>
    <path class="cls-4" d="m184.97,440.03c-60.38,0-109.33,49.25-109.33,109.99s48.95,110,109.33,110,109.33-49.25,109.33-110-48.95-109.99-109.33-109.99Zm50.85,154.65c-5.61,3.41-13.27,3.54-19,.33-6.47-3.64-10.18-10.82-10.18-19.71v-59.65h-39.2v75.71c0,3.83-3.12,6.96-6.96,6.96s-6.96-3.12-6.96-6.96v-23.18c-15.85-2.79-27.7-16.8-27.7-32.95,0-18.47,15.03-33.49,33.49-33.49.18,0,.34.02.51.04.31-.02.48-.04.65-.04h53.11c3.84,0,6.96,3.12,6.96,6.96v66.61c0,3.77,1.1,6.47,3.09,7.58,1.45.81,3.53.78,4.95-.08,1.13-.69,1.65-1.73,1.6-3.2-.06-1.86.6-3.63,1.86-4.99,1.27-1.36,2.99-2.14,4.85-2.2h.31c3.67-.01,6.76,3.01,6.89,6.71.23,6.56-2.79,12.24-8.28,15.57Z"/>
  </g>
</svg>