<?xml version="1.0" encoding="utf-8"?>
<!-- Generator: Adobe Illustrator 28.0.0, SVG Export Plug-In . SVG Version: 6.00 Build 0)  -->
<svg version="1.1" id="Capa_1" xmlns="http://www.w3.org/2000/svg" xmlns:xlink="http://www.w3.org/1999/xlink" x="0px" y="0px"
	 viewBox="0 0 989.2 231.6" style="enable-background:new 0 0 989.2 231.6;" xml:space="preserve">
<style type="text/css">
	.st0{fill:#FCC803;}
	.st1{fill:#838484;}
	.st2{fill:url(#SVGID_1_);}
	.st3{fill:url(#SVGID_00000158014411158005561120000005521532001617323162_);}
</style>
<g>
	<path class="st0" d="M270.4,138.1v-31.4c0-1.7,1.4-3.1,3.1-3.1h8.6c0.3,0,3.2,0.1,6.1,1.5c4.2,2.1,6.5,6,6.5,11
		c0,0.3,0,3.2-1.5,6.1c-2.1,4.1-6.1,6.5-11.1,6.5h-5.4v9.4c0,1.7-1.4,3.1-3.2,3.1S270.4,139.8,270.4,138.1L270.4,138.1z
		 M276.7,122.4h5.4c2.7,0,4.4-0.9,5.4-2.8c0.9-1.6,0.9-3.3,0.9-3.4c0-2.7-1-4.4-3-5.4c-1.6-0.8-3.3-0.8-3.3-0.8h-5.4L276.7,122.4
		L276.7,122.4z"/>
	<path class="st0" d="M296.7,138.1v-31.4c0-1.7,1.4-3.1,3.1-3.1s3.1,1.4,3.1,3.1v31.4c0,1.7-1.4,3.1-3.1,3.1
		S296.7,139.8,296.7,138.1z"/>
	<path class="st1" d="M319.9,141.2c-0.6,0-1.1-0.2-1.5-0.6c-0.4-0.4-0.6-0.9-0.6-1.5v-33.4c0-0.6,0.2-1.1,0.6-1.5s0.9-0.6,1.5-0.6
		h9.7c0,0,0.5,0,1.3,0.1c0.8,0,1.8,0.2,3,0.6c1.2,0.3,2.5,0.9,3.8,1.6c1.4,0.8,2.6,1.8,3.8,3.2c1.1,1.4,2.1,3.2,2.9,5.3
		c0.8,2.2,1.2,4.8,1.2,8s-0.4,5.8-1.2,8s-1.7,3.9-2.9,5.3s-2.4,2.5-3.8,3.2c-1.4,0.8-2.6,1.3-3.8,1.6s-2.2,0.5-3,0.6
		c-0.8,0-1.2,0.1-1.3,0.1L319.9,141.2L319.9,141.2z M322.2,136.8h7.4c0.1,0,0.3,0,0.6,0c0.4,0,0.8-0.1,1.3-0.2
		c0.5-0.1,1.1-0.3,1.8-0.6s1.4-0.6,2.1-1c1.8-1.2,3.1-2.8,4.1-5s1.5-4.6,1.5-7.5s-0.5-5.6-1.5-7.7c-1-2.1-2.4-3.8-4.3-5
		c-0.6-0.4-1.3-0.8-2-1s-1.3-0.4-1.8-0.5c-0.5-0.1-1.1-0.2-1.8-0.3h-7.4L322.2,136.8L322.2,136.8z"/>
	<path class="st1" d="M375.5,138.2c0.1,0.3,0.1,0.6,0.1,0.9c0,0.5-0.2,1-0.6,1.5c-0.4,0.5-0.9,0.7-1.6,0.7c-0.4,0-0.8-0.2-1.2-0.5
		c-0.4-0.3-0.7-0.7-0.9-1v0l-2.7-6.8h-17c-0.4,1-0.8,2.2-1.4,3.4c-0.5,1.2-1,2.4-1.4,3.4c-0.2,0.4-0.5,0.7-0.9,1
		c-0.4,0.3-0.8,0.5-1.2,0.5c-0.6,0-1.2-0.2-1.6-0.7c-0.4-0.5-0.6-1-0.6-1.5c0-0.3,0-0.6,0.1-0.9l10.5-26.4l2.8-6.8v0
		c0.2-0.4,0.5-0.7,0.8-1c0.4-0.3,0.8-0.5,1.3-0.5c0.4,0,0.8,0.2,1.2,0.5c0.4,0.3,0.7,0.7,0.9,1v0L375.5,138.2L375.5,138.2z
		 M366.8,128.5l-6.6-16.9l-6.7,16.9H366.8L366.8,128.5z"/>
	<path class="st1" d="M392.9,103.5c0.6,0,1.2,0.2,1.6,0.6s0.7,0.9,0.7,1.5c0,0.7-0.2,1.2-0.7,1.6s-1,0.7-1.6,0.7h-7.8v31.1
		c0,0.6-0.2,1.1-0.6,1.5s-1,0.6-1.6,0.6s-1.1-0.2-1.5-0.6s-0.6-0.9-0.6-1.5V108H373c-0.6,0-1.1-0.2-1.6-0.7c-0.4-0.4-0.6-1-0.6-1.6
		c0-0.6,0.2-1.1,0.6-1.5c0.4-0.4,1-0.6,1.6-0.6H392.9L392.9,103.5z"/>
	<path class="st1" d="M421.5,138.2c0.1,0.3,0.1,0.6,0.1,0.9c0,0.5-0.2,1-0.6,1.5c-0.4,0.5-0.9,0.7-1.6,0.7c-0.4,0-0.8-0.2-1.2-0.5
		c-0.4-0.3-0.7-0.7-0.9-1v0l-2.7-6.8h-17c-0.4,1-0.8,2.2-1.4,3.4c-0.5,1.2-1,2.4-1.4,3.4c-0.2,0.4-0.5,0.7-0.9,1
		c-0.4,0.3-0.8,0.5-1.2,0.5c-0.6,0-1.2-0.2-1.6-0.7c-0.4-0.5-0.6-1-0.6-1.5c0-0.3,0-0.6,0.1-0.9l10.5-26.4l2.8-6.8v0
		c0.2-0.4,0.5-0.7,0.8-1c0.4-0.3,0.8-0.5,1.3-0.5c0.4,0,0.8,0.2,1.2,0.5c0.4,0.3,0.7,0.7,0.9,1v0L421.5,138.2L421.5,138.2z
		 M412.7,128.5l-6.6-16.9l-6.7,16.9H412.7L412.7,128.5z"/>
	<path class="st1" d="M447.8,118.6c0.2,0.1,0.7,0.2,1.3,0.5s1.3,0.6,2.1,1s1.6,0.9,2.5,1.5c0.9,0.6,1.7,1.3,2.4,2
		c0.8,0.8,1.4,1.6,1.9,2.5s0.9,1.9,1,3v0.5c0,1.5-0.3,2.9-0.9,4.3s-1.4,2.6-2.4,3.6c-1.2,1.2-2.5,2-4,2.6c-1.5,0.6-3.2,0.9-4.9,0.9
		h-0.4c-2.2-0.1-4.2-0.7-6-1.9c-1.8-1.2-3.1-2.7-4-4.7c-0.1-0.2-0.2-0.5-0.2-0.9s0.1-0.8,0.4-1.2s0.6-0.7,1.1-0.9
		c0.1-0.1,0.3-0.1,0.6-0.1c0.4,0,0.8,0.1,1.2,0.3c0.4,0.2,0.6,0.5,0.8,0.9c0.6,1.2,1.4,2.2,2.5,2.9s2.3,1.1,3.7,1.1h0.3
		c2.4,0,4.2-0.7,5.7-2.2c1.4-1.4,2.2-3,2.2-4.8v-0.2c-0.1-0.8-0.4-1.6-1-2.3c-0.6-0.7-1.4-1.4-2.2-2c-0.8-0.6-1.7-1.1-2.6-1.5
		c-0.9-0.4-1.7-0.7-2.3-0.9l0,0c-0.3-0.1-0.5-0.2-0.6-0.2c-5.1-1.9-7.7-5.1-7.7-9.8v-0.4c0.1-1.3,0.4-2.5,1-3.6s1.4-2.1,2.5-2.9
		c0.9-0.8,2-1.3,3.2-1.7c1.2-0.4,2.5-0.6,3.9-0.6h0.5c1,0,2.1,0.2,3.2,0.6c1.1,0.4,2,0.9,2.9,1.6c0.2,0.2,0.4,0.5,0.6,0.9
		s0.3,0.6,0.3,0.9c0,0.5-0.2,1-0.5,1.3c-0.5,0.6-1.1,0.9-1.8,0.9c-0.2,0-0.4,0-0.7-0.1s-0.5-0.2-0.6-0.3c-0.5-0.4-1.1-0.7-1.8-0.9
		s-1.3-0.4-1.9-0.4h-0.4c-1.7,0-3.2,0.4-4.3,1.3c-1.1,0.9-1.7,2-1.8,3.3v0.2c0,0.9,0.1,1.7,0.4,2.3c0.3,0.6,0.7,1.1,1.2,1.6
		c0.5,0.4,1,0.8,1.6,1.1c0.6,0.3,1.2,0.6,1.8,0.8L447.8,118.6L447.8,118.6z"/>
	<path class="st1" d="M481.2,103.5c0.6,0,1.2,0.2,1.6,0.6s0.7,0.9,0.7,1.5c0,0.7-0.2,1.2-0.7,1.6s-1,0.7-1.6,0.7h-7.8v31.1
		c0,0.6-0.2,1.1-0.7,1.5c-0.4,0.4-1,0.6-1.6,0.6s-1.1-0.2-1.5-0.6c-0.4-0.4-0.6-0.9-0.6-1.5V108h-7.8c-0.6,0-1.1-0.2-1.6-0.7
		c-0.4-0.4-0.6-1-0.6-1.6c0-0.6,0.2-1.1,0.6-1.5s1-0.6,1.6-0.6H481.2L481.2,103.5z"/>
	<path class="st1" d="M509.5,137.8L509.5,137.8c0,0.2,0.1,0.4,0.2,0.6c0.1,0.2,0.1,0.4,0.1,0.7c0,0.3-0.1,0.7-0.3,1
		c-0.2,0.4-0.5,0.7-0.8,0.9c-0.3,0.2-0.6,0.3-1.1,0.3c-0.9,0-1.5-0.3-1.9-1l-7.7-12.3h-7.3v11.1c0,0.6-0.2,1.1-0.7,1.5
		c-0.4,0.4-1,0.6-1.6,0.6s-1.1-0.2-1.5-0.6c-0.4-0.4-0.6-0.9-0.6-1.5v-33.4c0-0.6,0.2-1.1,0.6-1.5s0.9-0.6,1.5-0.6h9.1
		c0.2,0,0.9,0.1,2,0.2s2.5,0.6,4,1.3h0c1.9,1,3.5,2.5,4.6,4.3c1.1,1.8,1.7,4,1.7,6.3c0,0.1,0,0.3,0,0.7s-0.1,0.8-0.2,1.4
		c-0.1,0.6-0.3,1.2-0.5,1.9s-0.5,1.4-0.8,2.1c-0.5,1-1.2,2-2.2,2.8s-2.1,1.7-3.4,2.4L509.5,137.8L509.5,137.8z M490.6,123.5h6.9
		c1.6,0,3-0.3,4.1-0.9c1.1-0.6,2-1.5,2.6-2.6c0.2-0.5,0.5-0.9,0.6-1.4c0.1-0.5,0.2-0.9,0.3-1.3c0.1-0.4,0.1-0.8,0.1-1
		c0-0.3,0-0.4,0-0.5c0-3.2-1.3-5.5-3.8-6.8c-0.5-0.2-1-0.4-1.5-0.6c-0.5-0.1-0.9-0.2-1.3-0.3c-0.4-0.1-0.8-0.1-1.2-0.1h-6.9
		L490.6,123.5L490.6,123.5z"/>
	<path class="st1" d="M543.3,138.2c0.1,0.3,0.1,0.6,0.1,0.9c0,0.5-0.2,1-0.6,1.5c-0.4,0.5-0.9,0.7-1.6,0.7c-0.4,0-0.8-0.2-1.2-0.5
		c-0.4-0.3-0.7-0.7-0.9-1v0l-2.8-6.8h-17c-0.4,1-0.8,2.2-1.3,3.4s-1,2.4-1.4,3.4c-0.2,0.4-0.5,0.7-0.9,1c-0.4,0.3-0.8,0.5-1.2,0.5
		c-0.7,0-1.2-0.2-1.6-0.7c-0.4-0.5-0.6-1-0.6-1.5c0-0.3,0-0.6,0.1-0.9l10.5-26.4l2.8-6.8v0c0.2-0.4,0.5-0.7,0.8-1
		c0.4-0.3,0.8-0.5,1.3-0.5c0.4,0,0.8,0.2,1.2,0.5c0.4,0.3,0.7,0.7,0.9,1v0L543.3,138.2L543.3,138.2z M534.6,128.5l-6.6-16.9
		l-6.7,16.9H534.6L534.6,128.5z"/>
	<path class="st1" d="M560.7,103.5c0.6,0,1.2,0.2,1.6,0.6s0.7,0.9,0.7,1.5c0,0.7-0.2,1.2-0.7,1.6s-1,0.7-1.6,0.7h-7.8v31.1
		c0,0.6-0.2,1.1-0.6,1.5c-0.4,0.4-1,0.6-1.6,0.6s-1.1-0.2-1.5-0.6c-0.4-0.4-0.6-0.9-0.6-1.5V108h-7.8c-0.6,0-1.1-0.2-1.6-0.7
		c-0.4-0.4-0.6-1-0.6-1.6c0-0.6,0.2-1.1,0.6-1.5s1-0.6,1.6-0.6H560.7L560.7,103.5z"/>
	<path class="st1" d="M587.8,137.4c0.4,0.4,0.6,1,0.6,1.6c0,0.6-0.2,1.1-0.6,1.5c-0.4,0.4-1,0.6-1.6,0.6H568c-0.6,0-1.1-0.2-1.6-0.6
		s-0.6-0.9-0.6-1.5v-33.4c0-0.6,0.2-1.1,0.6-1.5s1-0.6,1.6-0.6h18.3c0.6,0,1.1,0.2,1.6,0.6s0.6,0.9,0.6,1.5c0,0.7-0.2,1.2-0.6,1.6
		c-0.4,0.4-1,0.7-1.6,0.7h-16.1v12.3h12.8c0.6,0,1.1,0.2,1.5,0.6c0.4,0.4,0.6,0.9,0.6,1.5s-0.2,1.1-0.6,1.5
		c-0.4,0.4-0.9,0.6-1.5,0.6h-12.8v12.3h16.1C586.9,136.8,587.4,137,587.8,137.4L587.8,137.4z"/>
	<path class="st1" d="M607.2,141.2c-2.4,0-4.8-0.5-7.1-1.4s-4.4-2.3-6.2-4.1c-1.8-1.8-3.1-3.8-4.1-6.1c-1-2.3-1.4-4.7-1.4-7.2
		s0.5-4.9,1.4-7.2c1-2.3,2.3-4.3,4.1-6.1c1.8-1.8,3.9-3.2,6.2-4.1c2.3-0.9,4.7-1.4,7.2-1.4s4.9,0.5,7.2,1.4c2.3,0.9,4.4,2.3,6.2,4.1
		c0.4,0.4,0.6,0.9,0.6,1.5s-0.2,1.2-0.6,1.6c-0.4,0.4-1,0.6-1.6,0.6c-0.6,0-1.2-0.2-1.6-0.6c-1.4-1.4-2.9-2.4-4.7-3.2
		c-1.7-0.7-3.6-1.1-5.6-1.1s-3.8,0.4-5.5,1.1c-1.7,0.7-3.3,1.8-4.7,3.2c-1.4,1.4-2.4,2.9-3.2,4.7c-0.7,1.7-1.1,3.6-1.1,5.5
		s0.4,3.8,1.1,5.5c0.7,1.7,1.8,3.3,3.2,4.7c1.4,1.4,3,2.5,4.8,3.2s3.6,1.1,5.3,1.1c3.5,0,6.7-1.2,9.6-3.6v-8.7h-9.5
		c-0.6,0-1.1-0.2-1.6-0.6c-0.5-0.4-0.7-0.9-0.7-1.5s0.2-1.1,0.7-1.5c0.5-0.4,1-0.6,1.6-0.6H619c0.6,0,1.1,0.2,1.6,0.6
		s0.6,0.9,0.6,1.5v11.7c0,0.3-0.1,0.6-0.2,0.9c-0.1,0.3-0.3,0.5-0.5,0.7c-1.8,1.8-3.9,3.2-6.2,4.1
		C612.1,140.7,609.7,141.2,607.2,141.2L607.2,141.2z"/>
	<path class="st1" d="M650.2,103.9c0.7,0.5,1,1.1,1,1.8c0,0.6-0.1,1-0.4,1.3l-11.2,16v16c0,0.6-0.2,1.1-0.7,1.5s-1,0.6-1.6,0.6
		c-0.6,0-1.1-0.2-1.5-0.6s-0.6-0.9-0.6-1.5v-16l-11.2-16c-0.2-0.3-0.4-0.6-0.4-1.1c0-0.6,0.2-1.1,0.6-1.6c0.4-0.5,0.9-0.8,1.6-0.8
		c0.4,0,0.8,0.1,1.1,0.3c0.3,0.2,0.6,0.4,0.8,0.7l9.7,13.9c1.5-2.2,3.2-4.5,5-6.9c1.8-2.5,3.4-4.8,5-7c0.2-0.3,0.5-0.5,0.8-0.7
		c0.3-0.2,0.7-0.3,1-0.3C649.5,103.5,649.9,103.7,650.2,103.9L650.2,103.9z"/>
	<path class="st1" d="M693.9,137.7c0.3,0.3,0.5,0.8,0.5,1.3c0,0.3-0.1,0.6-0.2,0.9c-0.2,0.3-0.3,0.6-0.5,0.8
		c-0.2,0.1-0.4,0.3-0.7,0.3c-0.3,0.1-0.5,0.1-0.8,0.1c-0.3,0-0.6-0.1-1-0.2c-0.3-0.1-0.5-0.3-0.7-0.6l-3.7-4.5l-2.3,2.7
		c-1.1,0.9-2.3,1.6-3.5,2s-2.5,0.6-3.7,0.6c-1.6,0-3.1-0.3-4.4-0.9s-2.6-1.4-3.6-2.5c-1-1.1-1.8-2.3-2.4-3.7
		c-0.6-1.4-0.9-2.9-0.9-4.5c0-1.1,0.2-2.2,0.5-3.3c0.4-1.1,0.8-2.1,1.5-3s1.4-1.8,2.3-2.5c0.9-0.8,1.8-1.5,2.9-2
		c-1.2-2.1-1.8-4-1.8-5.8c0-1.3,0.2-2.5,0.7-3.7c0.5-1.2,1.2-2.2,2-3c0.9-0.9,1.9-1.5,3-2c1.1-0.5,2.3-0.7,3.6-0.7s2.5,0.2,3.7,0.7
		c1.2,0.5,2.2,1.2,3,2c0.9,0.9,1.5,1.9,2,3c0.5,1.2,0.7,2.4,0.7,3.7v0.7c-0.2,0.9-0.5,1.7-1,2.6c-0.5,0.9-1.1,1.7-1.8,2.5
		c-0.7,0.8-1.5,1.5-2.5,2.1s-1.9,1.1-3,1.4l5.4,6.8l4.1-4.6c0.6-0.5,1.1-0.8,1.6-0.8c0.6,0,1.1,0.2,1.5,0.6c0.2,0.2,0.4,0.5,0.5,0.8
		c0.1,0.3,0.2,0.6,0.2,0.9c0,0.6-0.1,1.1-0.4,1.5l-4.6,5.1L693.9,137.7L693.9,137.7z M684.1,132.4l-8.1-10.1
		c-1.7,0.5-3.1,1.4-4.1,2.7c-1.1,1.3-1.6,2.8-1.6,4.5c0,1,0.2,2,0.5,2.8s0.8,1.6,1.5,2.3c0.6,0.7,1.4,1.2,2.2,1.5
		c0.9,0.4,1.8,0.6,2.7,0.6c1.7,0,3-0.4,4-1.3L684.1,132.4L684.1,132.4z M680.6,108c-0.7,0-1.3,0.1-1.9,0.4c-0.6,0.2-1.2,0.6-1.6,1.1
		c-0.5,0.5-0.8,1-1.1,1.6c-0.3,0.6-0.4,1.3-0.4,1.9c0,1.2,0.4,2.3,1.1,3.2l1.6,1.8h2.3c0.7,0,1.3-0.1,1.9-0.4s1.2-0.6,1.6-1.1
		c0.5-0.5,0.8-1,1.1-1.6s0.4-1.2,0.4-1.9v-0.6c-0.2-1.2-0.7-2.3-1.7-3.2C682.9,108.4,681.8,108,680.6,108L680.6,108z"/>
	<path class="st1" d="M735.2,135.1c0.4-0.2,0.8-0.3,1.1-0.3c0.4,0,0.8,0.1,1.1,0.3s0.6,0.5,0.8,0.9c0.3,0.5,0.3,1.1,0.1,1.7
		s-0.5,1.1-1,1.3l0,0c-1.4,0.7-2.8,1.2-4.4,1.6c-1.6,0.4-3.1,0.6-4.7,0.6c-2.6,0-5-0.5-7.3-1.5c-2.3-1-4.3-2.3-6-4
		c-1.7-1.7-3-3.7-4-6c-1-2.3-1.5-4.7-1.5-7.3s0.5-5,1.5-7.3c1-2.3,2.3-4.3,4-6s3.7-3.1,6-4.1c2.3-1,4.7-1.5,7.3-1.5
		c1.5,0,3.1,0.2,4.7,0.7s3,1,4.4,1.6l0,0c0.5,0.3,0.8,0.8,1,1.4c0.2,0.6,0.1,1.2-0.2,1.7c-0.4,0.8-1,1.1-1.9,1.1
		c-0.4,0-0.7-0.1-1.1-0.3h0c-1-0.5-2-1-3.2-1.3s-2.4-0.5-3.6-0.5c-2,0-3.8,0.4-5.6,1.1c-1.7,0.8-3.3,1.8-4.6,3.1s-2.3,2.8-3.1,4.6
		c-0.8,1.8-1.2,3.6-1.2,5.7s0.4,3.9,1.2,5.7c0.8,1.8,1.8,3.3,3.1,4.6s2.8,2.3,4.6,3.1c1.7,0.8,3.6,1.1,5.6,1.1
		c1.3,0,2.5-0.1,3.6-0.4C733.2,136.1,734.3,135.7,735.2,135.1L735.2,135.1L735.2,135.1z"/>
	<path class="st1" d="M756.2,141.2c-2.5,0-4.8-0.5-7-1.5c-2.2-1-4.1-2.3-5.7-4c-1.6-1.7-2.9-3.7-3.9-6s-1.4-4.7-1.4-7.3
		s0.5-5,1.4-7.3c1-2.3,2.2-4.3,3.9-6s3.5-3.1,5.7-4.1s4.5-1.5,7-1.5s4.8,0.5,7,1.5c2.2,1,4.1,2.3,5.7,4.1s2.9,3.7,3.8,6
		c1,2.3,1.4,4.7,1.4,7.3s-0.5,5-1.4,7.3c-1,2.3-2.2,4.3-3.8,6c-1.6,1.7-3.5,3-5.7,4C761,140.7,758.7,141.2,756.2,141.2z M756.2,108
		c-1.9,0-3.7,0.4-5.3,1.1c-1.7,0.8-3.1,1.8-4.3,3.1s-2.2,2.8-2.9,4.6c-0.7,1.8-1.1,3.6-1.1,5.7s0.4,3.9,1.1,5.7
		c0.7,1.8,1.7,3.3,2.9,4.6c1.2,1.3,2.7,2.3,4.3,3.1c1.7,0.8,3.4,1.1,5.3,1.1s3.6-0.4,5.3-1.1c1.7-0.8,3.1-1.8,4.3-3.1
		c1.2-1.3,2.2-2.8,2.9-4.6c0.7-1.8,1-3.6,1-5.7s-0.3-3.9-1-5.7c-0.7-1.8-1.7-3.3-2.9-4.6c-1.2-1.3-2.7-2.3-4.3-3.1
		S758.1,108,756.2,108z"/>
	<path class="st1" d="M801.9,141.2c-0.4,0-0.8-0.1-1-0.3c-0.3-0.2-0.6-0.4-0.8-0.7l-19.2-27.5v26.4c0,0.6-0.2,1.1-0.7,1.5
		c-0.5,0.4-1,0.6-1.6,0.6c-0.6,0-1.1-0.2-1.5-0.6s-0.7-0.9-0.7-1.5v-33.4c0-0.5,0.2-1,0.7-1.5c0.4-0.5,1-0.7,1.6-0.7
		c0.4,0,0.7,0.1,1,0.3c0.3,0.2,0.6,0.4,0.8,0.7l19.3,27.5v-26.4c0-0.6,0.2-1.1,0.6-1.5s1-0.6,1.6-0.6s1.1,0.2,1.6,0.6
		s0.7,0.9,0.7,1.5v33.4c0,0.6-0.2,1.1-0.7,1.5C803.1,141,802.5,141.2,801.9,141.2L801.9,141.2z"/>
	<path class="st1" d="M818.3,118.6c0.2,0.1,0.7,0.2,1.3,0.5s1.3,0.6,2.1,1s1.6,0.9,2.5,1.5c0.9,0.6,1.7,1.3,2.4,2
		c0.8,0.8,1.4,1.6,1.9,2.5c0.5,0.9,0.9,1.9,1,3v0.5c0,1.5-0.3,2.9-0.9,4.3s-1.4,2.6-2.4,3.6c-1.2,1.2-2.5,2-4,2.6
		c-1.5,0.6-3.2,0.9-4.9,0.9h-0.4c-2.2-0.1-4.2-0.7-6-1.9c-1.8-1.2-3.1-2.7-4-4.7c-0.1-0.2-0.2-0.5-0.2-0.9s0.1-0.8,0.4-1.2
		c0.2-0.4,0.6-0.7,1.1-0.9c0.1-0.1,0.3-0.1,0.6-0.1c0.4,0,0.8,0.1,1.2,0.3c0.4,0.2,0.7,0.5,0.8,0.9c0.6,1.2,1.4,2.2,2.5,2.9
		s2.3,1.1,3.7,1.1h0.3c2.4,0,4.2-0.7,5.7-2.2c1.4-1.4,2.2-3,2.2-4.8v-0.2c-0.1-0.8-0.4-1.6-1-2.3c-0.6-0.7-1.4-1.4-2.2-2
		c-0.8-0.6-1.7-1.1-2.6-1.5c-0.9-0.4-1.7-0.7-2.3-0.9l0,0c-0.3-0.1-0.5-0.2-0.6-0.2c-5.1-1.9-7.7-5.1-7.7-9.8v-0.4
		c0.1-1.3,0.4-2.5,1-3.6c0.6-1.1,1.4-2.1,2.5-2.9c0.9-0.8,2-1.3,3.2-1.7c1.2-0.4,2.5-0.6,3.9-0.6h0.5c1,0,2.1,0.2,3.2,0.6
		c1.1,0.4,2,0.9,2.9,1.6c0.2,0.2,0.4,0.5,0.6,0.9s0.3,0.6,0.3,0.9c0,0.5-0.2,1-0.5,1.3c-0.5,0.6-1.1,0.9-1.8,0.9
		c-0.2,0-0.4,0-0.6-0.1s-0.5-0.2-0.6-0.3c-0.5-0.4-1.1-0.7-1.8-0.9s-1.3-0.4-1.9-0.4h-0.4c-1.7,0-3.2,0.4-4.3,1.3
		c-1.2,0.9-1.7,2-1.8,3.3v0.2c0,0.9,0.1,1.7,0.4,2.3s0.7,1.1,1.2,1.6c0.5,0.4,1,0.8,1.6,1.1c0.6,0.3,1.2,0.6,1.8,0.8L818.3,118.6
		L818.3,118.6z"/>
	<path class="st1" d="M845.3,141.2c-2.6,0-4.9-0.6-6.9-1.8c-2-1.2-3.5-3-4.6-5.3c-0.4-0.8-0.7-1.6-0.9-2.3s-0.3-1.5-0.5-2.1
		c-0.1-0.6-0.2-1.1-0.2-1.5c0-0.4,0-0.7,0-0.8v-21.7c0-0.6,0.2-1.1,0.7-1.5s1-0.6,1.6-0.6c0.6,0,1.1,0.2,1.5,0.6s0.7,0.9,0.7,1.5
		v21.7c0,0.2,0,0.5,0.1,1s0.2,1.1,0.4,1.8s0.5,1.4,0.9,2.2s0.9,1.5,1.5,2.1c0.6,0.7,1.4,1.2,2.4,1.6s2.1,0.6,3.4,0.6
		c1.9,0,3.4-0.4,4.5-1.3s2-1.8,2.6-2.9c0.6-1.1,1-2.2,1.2-3.2c0.2-1,0.3-1.7,0.3-2.1v-21.7c0-0.6,0.2-1.1,0.6-1.5
		c0.4-0.4,1-0.6,1.6-0.6s1.1,0.2,1.5,0.6c0.4,0.4,0.6,0.9,0.6,1.5v21.7c0,0.1,0,0.4,0,0.8c0,0.4-0.1,0.9-0.2,1.5
		c-0.1,0.6-0.2,1.3-0.5,2.1c-0.2,0.8-0.5,1.5-0.9,2.3c-1.1,2.3-2.6,4.1-4.5,5.3C850.3,140.6,848,141.2,845.3,141.2L845.3,141.2z"/>
	<path class="st1" d="M863.3,141.2c-0.6,0-1.1-0.2-1.6-0.6s-0.7-0.9-0.7-1.5v-33.4c0-0.6,0.2-1.1,0.7-1.5s1-0.6,1.6-0.6
		s1.1,0.2,1.6,0.6s0.6,0.9,0.6,1.5v31.1h12.7c0.6,0,1.2,0.2,1.6,0.7c0.5,0.4,0.7,1,0.7,1.6c0,0.6-0.2,1.1-0.7,1.5s-1,0.6-1.6,0.6
		H863.3z"/>
	<path class="st1" d="M898.2,103.5c0.6,0,1.2,0.2,1.6,0.6s0.7,0.9,0.7,1.5c0,0.7-0.2,1.2-0.7,1.6s-1,0.7-1.6,0.7h-7.8v31.1
		c0,0.6-0.2,1.1-0.7,1.5c-0.4,0.4-1,0.6-1.6,0.6s-1.1-0.2-1.5-0.6c-0.4-0.4-0.6-0.9-0.6-1.5V108h-7.8c-0.6,0-1.1-0.2-1.6-0.7
		c-0.4-0.4-0.6-1-0.6-1.6c0-0.6,0.2-1.1,0.6-1.5c0.4-0.4,1-0.6,1.6-0.6H898.2L898.2,103.5z"/>
	<path class="st1" d="M905.6,141.2c-0.6,0-1.1-0.2-1.5-0.6s-0.7-0.9-0.7-1.5v-33.4c0-0.6,0.2-1.1,0.7-1.5c0.4-0.4,0.9-0.6,1.5-0.6
		c0.6,0,1.1,0.2,1.6,0.6s0.7,0.9,0.7,1.5v33.4c0,0.6-0.2,1.1-0.7,1.5S906.3,141.2,905.6,141.2z"/>
	<path class="st1" d="M936.9,141.2c-0.4,0-0.8-0.1-1-0.3c-0.3-0.2-0.6-0.4-0.8-0.7l-19.2-27.5v26.4c0,0.6-0.2,1.1-0.7,1.5
		c-0.5,0.4-1,0.6-1.6,0.6c-0.6,0-1.1-0.2-1.5-0.6s-0.7-0.9-0.7-1.5v-33.4c0-0.5,0.2-1,0.7-1.5c0.4-0.5,1-0.7,1.6-0.7
		c0.4,0,0.7,0.1,1,0.3c0.3,0.2,0.6,0.4,0.8,0.7l19.3,27.5v-26.4c0-0.6,0.2-1.1,0.6-1.5s1-0.6,1.6-0.6s1.1,0.2,1.6,0.6
		s0.7,0.9,0.7,1.5v33.4c0,0.6-0.2,1.1-0.7,1.5C938,141,937.5,141.2,936.9,141.2L936.9,141.2z"/>
	<path class="st1" d="M960.4,141.2c-2.4,0-4.8-0.5-7.1-1.4s-4.4-2.3-6.2-4.1c-1.8-1.8-3.1-3.8-4.1-6.1c-1-2.3-1.4-4.7-1.4-7.2
		s0.5-4.9,1.4-7.2c1-2.3,2.3-4.3,4.1-6.1c1.8-1.8,3.9-3.2,6.2-4.1c2.3-0.9,4.7-1.4,7.2-1.4c2.5,0,4.9,0.5,7.2,1.4
		c2.3,0.9,4.4,2.3,6.2,4.1c0.4,0.4,0.6,0.9,0.6,1.5s-0.2,1.2-0.6,1.6c-0.4,0.4-0.9,0.6-1.6,0.6c-0.6,0-1.2-0.2-1.6-0.6
		c-1.4-1.4-2.9-2.4-4.7-3.2c-1.7-0.7-3.6-1.1-5.6-1.1s-3.8,0.4-5.5,1.1c-1.7,0.7-3.3,1.8-4.7,3.2c-1.4,1.4-2.4,2.9-3.2,4.7
		c-0.7,1.7-1.1,3.6-1.1,5.5s0.4,3.8,1.1,5.5c0.7,1.7,1.8,3.3,3.2,4.7c1.4,1.4,3,2.5,4.8,3.2s3.6,1.1,5.3,1.1c3.5,0,6.7-1.2,9.6-3.6
		v-8.7h-9.5c-0.6,0-1.1-0.2-1.6-0.6c-0.4-0.4-0.7-0.9-0.7-1.5s0.2-1.1,0.7-1.5c0.4-0.4,1-0.6,1.6-0.6h11.6c0.6,0,1.1,0.2,1.6,0.6
		s0.6,0.9,0.6,1.5v11.7c0,0.3-0.1,0.6-0.2,0.9c-0.1,0.3-0.3,0.5-0.5,0.7c-1.8,1.8-3.9,3.2-6.2,4.1
		C965.2,140.7,962.8,141.2,960.4,141.2L960.4,141.2z"/>
</g>
<g>
	
		<linearGradient id="SVGID_1_" gradientUnits="userSpaceOnUse" x1="81.1083" y1="94.7522" x2="81.1083" y2="132.1222" gradientTransform="matrix(1 0 0 -1 0 215.3044)">
		<stop  offset="0" style="stop-color:#FCC803"/>
		<stop  offset="1" style="stop-color:#FCEA1E"/>
	</linearGradient>
	<path class="st2" d="M74.2,101.9c0,8.7,5.6,16.2,13.8,18.7V83.2C79.8,85.7,74.2,93.2,74.2,101.9L74.2,101.9z"/>
	
		<linearGradient id="SVGID_00000079463794234660523210000008905079039123803315_" gradientUnits="userSpaceOnUse" x1="119.4483" y1="-11.3678" x2="119.4483" y2="208.6222" gradientTransform="matrix(1 0 0 -1 0 215.3044)">
		<stop  offset="0" style="stop-color:#FCC803"/>
		<stop  offset="1" style="stop-color:#FCEA1E"/>
	</linearGradient>
	<path style="fill:url(#SVGID_00000079463794234660523210000008905079039123803315_);" d="M119.4,6.7c-60.4,0-109.3,49.2-109.3,110
		s48.9,110,109.3,110s109.3-49.2,109.3-110S179.8,6.7,119.4,6.7L119.4,6.7z M170.3,161.3c-5.6,3.4-13.3,3.5-19,0.3
		c-6.5-3.6-10.2-10.8-10.2-19.7V82.3h-39.2V158c0,3.8-3.1,7-7,7s-7-3.1-7-7v-23.2c-15.9-2.8-27.7-16.8-27.7-33
		c0-18.5,15-33.5,33.5-33.5c0.2,0,0.3,0,0.5,0c0.3,0,0.5,0,0.6,0h53.1c3.8,0,7,3.1,7,7V142c0,3.8,1.1,6.5,3.1,7.6
		c1.4,0.8,3.5,0.8,4.9-0.1c1.1-0.7,1.6-1.7,1.6-3.2c-0.1-1.9,0.6-3.6,1.9-5c1.3-1.4,3-2.1,4.9-2.2h0.3c3.7,0,6.8,3,6.9,6.7
		C178.8,152.3,175.8,158,170.3,161.3L170.3,161.3z"/>
</g>
</svg>
